<svg width="692" height="106" viewBox="0 0 692 106" fill="none" xmlns="http://www.w3.org/2000/svg">
<path d="M0.207387 63.4915V51.2188L58.5028 24.2869V39.4148L17.0824 57.1847L17.5511 56.375V58.3352L17.0824 57.5256L58.5028 75.2955V90.4233L0.207387 63.4915ZM101.958 93.1506C96.8161 93.1506 92.2138 91.8295 88.1513 89.1875C84.0888 86.5455 80.8786 82.7102 78.5206 77.6818C76.1626 72.6534 74.9837 66.5455 74.9837 59.358C74.9837 52.0852 76.1768 45.9489 78.5632 40.9489C80.978 35.9205 84.2308 32.1278 88.3217 29.571C92.4126 26.9858 96.9723 25.6932 102.001 25.6932C105.836 25.6932 108.989 26.3466 111.461 27.6534C113.933 28.9318 115.893 30.4801 117.342 32.2983C118.79 34.0881 119.913 35.7784 120.708 37.3693H121.347V4.72727H136.816V92H121.646V81.6875H120.708C119.913 83.2784 118.762 84.9687 117.256 86.7585C115.751 88.5199 113.762 90.0256 111.29 91.2756C108.819 92.5256 105.708 93.1506 101.958 93.1506ZM106.262 80.4943C109.529 80.4943 112.313 79.6136 114.614 77.8523C116.915 76.0625 118.663 73.5767 119.856 70.3949C121.049 67.2131 121.646 63.5057 121.646 59.2727C121.646 55.0398 121.049 51.3608 119.856 48.2358C118.691 45.1108 116.958 42.6818 114.657 40.9489C112.384 39.2159 109.586 38.3494 106.262 38.3494C102.825 38.3494 99.9553 39.2443 97.6541 41.0341C95.353 42.8239 93.62 45.2955 92.4553 48.4489C91.2905 51.6023 90.7081 55.2102 90.7081 59.2727C90.7081 63.3636 91.2905 67.0142 92.4553 70.2244C93.6484 73.4062 95.3956 75.9205 97.6967 77.767C100.026 79.5852 102.881 80.4943 106.262 80.4943ZM172.089 93.321C167.942 93.321 164.206 92.5824 160.882 91.1051C157.587 89.5994 154.973 87.3835 153.041 84.4574C151.138 81.5312 150.186 77.9233 150.186 73.6335C150.186 69.9403 150.868 66.8864 152.232 64.4716C153.595 62.0568 155.456 60.125 157.814 58.6761C160.172 57.2273 162.828 56.1335 165.783 55.3949C168.766 54.6278 171.848 54.0739 175.03 53.733C178.865 53.3352 181.976 52.9801 184.362 52.6676C186.749 52.3267 188.482 51.8153 189.561 51.1335C190.669 50.4233 191.223 49.3295 191.223 47.8523V47.5966C191.223 44.3864 190.271 41.9006 188.368 40.1392C186.464 38.3778 183.723 37.4972 180.143 37.4972C176.365 37.4972 173.368 38.321 171.152 39.9688C168.964 41.6165 167.487 43.5625 166.72 45.8068L152.317 43.7614C153.453 39.7841 155.328 36.4602 157.942 33.7898C160.555 31.0909 163.751 29.0739 167.53 27.7386C171.308 26.375 175.484 25.6932 180.058 25.6932C183.212 25.6932 186.351 26.0625 189.476 26.8011C192.601 27.5398 195.456 28.7614 198.041 30.4659C200.626 32.142 202.7 34.429 204.263 37.3267C205.854 40.2244 206.649 43.8466 206.649 48.1932V92H191.82V83.0085H191.308C190.371 84.8267 189.05 86.5312 187.345 88.1222C185.669 89.6847 183.553 90.9489 180.996 91.9148C178.467 92.8523 175.499 93.321 172.089 93.321ZM176.095 81.9858C179.192 81.9858 181.876 81.375 184.149 80.1534C186.422 78.9034 188.169 77.2557 189.391 75.2102C190.641 73.1648 191.266 70.9347 191.266 68.5199V60.8068C190.783 61.2045 189.959 61.5739 188.794 61.9148C187.658 62.2557 186.379 62.554 184.959 62.8097C183.538 63.0653 182.132 63.2926 180.74 63.4915C179.348 63.6903 178.141 63.8608 177.118 64.0028C174.817 64.3153 172.757 64.8267 170.939 65.5369C169.121 66.2472 167.686 67.2415 166.635 68.5199C165.584 69.7699 165.058 71.3892 165.058 73.3778C165.058 76.2188 166.095 78.3636 168.169 79.8125C170.243 81.2614 172.885 81.9858 176.095 81.9858ZM237.587 4.72727V92H222.161V4.72727H237.587ZM282.427 93.2784C275.864 93.2784 270.197 91.9148 265.424 89.1875C260.68 86.4318 257.029 82.5398 254.472 77.5114C251.915 72.4545 250.637 66.5028 250.637 59.6562C250.637 52.9233 251.915 47.0142 254.472 41.929C257.058 36.8153 260.665 32.8381 265.296 29.9972C269.927 27.1278 275.367 25.6932 281.617 25.6932C285.651 25.6932 289.458 26.3466 293.038 27.6534C296.646 28.9318 299.827 30.9205 302.583 33.6193C305.367 36.3182 307.555 39.7557 309.146 43.9318C310.737 48.0795 311.532 53.0227 311.532 58.7614V63.4915H257.881V53.0938H296.745C296.717 50.1392 296.077 47.5114 294.827 45.2102C293.577 42.8807 291.83 41.0483 289.586 39.7131C287.37 38.3778 284.785 37.7102 281.83 37.7102C278.677 37.7102 275.907 38.4773 273.521 40.0114C271.134 41.517 269.273 43.5057 267.938 45.9773C266.631 48.4205 265.964 51.1051 265.935 54.0312V63.108C265.935 66.9148 266.631 70.1818 268.023 72.9091C269.415 75.608 271.362 77.6818 273.862 79.1307C276.362 80.5511 279.288 81.2614 282.64 81.2614C284.884 81.2614 286.915 80.9489 288.734 80.3239C290.552 79.6705 292.129 78.7188 293.464 77.4688C294.799 76.2188 295.808 74.6705 296.489 72.8239L310.893 74.4432C309.984 78.25 308.251 81.5739 305.694 84.4148C303.165 87.2273 299.927 89.4148 295.978 90.9773C292.029 92.5114 287.512 93.2784 282.427 93.2784ZM324.582 92V26.5455H339.54V37.4545H340.222C341.415 33.6761 343.46 30.7642 346.358 28.7188C349.284 26.6449 352.622 25.608 356.372 25.608C357.224 25.608 358.176 25.6506 359.227 25.7358C360.307 25.7926 361.202 25.892 361.912 26.0341V40.2244C361.259 39.9972 360.222 39.7983 358.801 39.6278C357.409 39.429 356.06 39.3295 354.753 39.3295C351.94 39.3295 349.412 39.9403 347.168 41.1619C344.952 42.3551 343.205 44.017 341.926 46.1477C340.648 48.2784 340.009 50.7358 340.009 53.5199V92H324.582ZM423.893 43.8466L409.831 45.3807C409.433 43.9602 408.737 42.625 407.743 41.375C406.777 40.125 405.47 39.1165 403.822 38.3494C402.175 37.5824 400.158 37.1989 397.771 37.1989C394.561 37.1989 391.862 37.8949 389.675 39.2869C387.516 40.679 386.45 42.483 386.479 44.6989C386.45 46.6023 387.146 48.1506 388.567 49.3438C390.016 50.5369 392.402 51.517 395.726 52.2841L406.891 54.6705C413.084 56.0057 417.686 58.1222 420.697 61.0199C423.737 63.9176 425.271 67.7102 425.3 72.3977C425.271 76.517 424.064 80.1534 421.678 83.3068C419.32 86.4318 416.038 88.875 411.834 90.6364C407.629 92.3977 402.8 93.2784 397.345 93.2784C389.334 93.2784 382.885 91.6023 377.999 88.25C373.112 84.8693 370.2 80.1676 369.263 74.1449L384.305 72.696C384.987 75.6506 386.436 77.8807 388.652 79.3864C390.868 80.892 393.751 81.6449 397.303 81.6449C400.967 81.6449 403.908 80.892 406.124 79.3864C408.368 77.8807 409.49 76.0199 409.49 73.804C409.49 71.929 408.766 70.3807 407.317 69.1591C405.896 67.9375 403.68 67 400.669 66.3466L389.504 64.0028C383.226 62.696 378.581 60.4943 375.57 57.3977C372.558 54.2727 371.067 50.3239 371.095 45.5511C371.067 41.517 372.161 38.0227 374.376 35.0682C376.621 32.0852 379.732 29.7841 383.709 28.1648C387.714 26.517 392.331 25.6932 397.558 25.6932C405.229 25.6932 411.266 27.3267 415.669 30.5938C420.101 33.8608 422.842 38.2784 423.893 43.8466ZM453.446 53.6477V92H438.02V4.72727H453.105V37.6676H453.872C455.406 33.9744 457.778 31.0625 460.989 28.9318C464.227 26.7727 468.347 25.6932 473.347 25.6932C477.892 25.6932 481.855 26.6449 485.236 28.5483C488.616 30.4517 491.23 33.2358 493.077 36.9006C494.952 40.5653 495.889 45.0398 495.889 50.3239V92H480.463V52.7102C480.463 48.3068 479.327 44.8835 477.054 42.4403C474.81 39.9687 471.656 38.733 467.594 38.733C464.866 38.733 462.423 39.3295 460.264 40.5227C458.134 41.6875 456.457 43.3778 455.236 45.5938C454.043 47.8097 453.446 50.4943 453.446 53.6477ZM540.165 93.2784C533.773 93.2784 528.233 91.8722 523.545 89.0597C518.858 86.2472 515.222 82.3125 512.636 77.2557C510.08 72.1989 508.801 66.2898 508.801 59.5284C508.801 52.767 510.08 46.8437 512.636 41.7585C515.222 36.6733 518.858 32.7244 523.545 29.9119C528.233 27.0994 533.773 25.6932 540.165 25.6932C546.557 25.6932 552.097 27.0994 556.784 29.9119C561.472 32.7244 565.094 36.6733 567.651 41.7585C570.236 46.8437 571.528 52.767 571.528 59.5284C571.528 66.2898 570.236 72.1989 567.651 77.2557C565.094 82.3125 561.472 86.2472 556.784 89.0597C552.097 91.8722 546.557 93.2784 540.165 93.2784ZM540.25 80.9205C543.716 80.9205 546.614 79.9687 548.943 78.0653C551.273 76.1335 553.006 73.5483 554.142 70.3097C555.307 67.071 555.889 63.4631 555.889 59.4858C555.889 55.4801 555.307 51.858 554.142 48.6193C553.006 45.3523 551.273 42.7528 548.943 40.821C546.614 38.8892 543.716 37.9233 540.25 37.9233C536.699 37.9233 533.744 38.8892 531.386 40.821C529.057 42.7528 527.31 45.3523 526.145 48.6193C525.009 51.858 524.44 55.4801 524.44 59.4858C524.44 63.4631 525.009 67.071 526.145 70.3097C527.31 73.5483 529.057 76.1335 531.386 78.0653C533.744 79.9687 536.699 80.9205 540.25 80.9205ZM620.246 0.636358L592.121 105.125H578.613L606.738 0.636358H620.246ZM691.667 63.4915L633.371 90.4233V75.2955L674.792 57.5256L674.323 58.3352V56.375L674.792 57.1847L633.371 39.4148V24.2869L691.667 51.2188V63.4915Z" fill="white"/>
</svg>
